<?xml version="1.0" encoding="UTF-8"?>
<!DOCTYPE svg PUBLIC "-//W3C//DTD SVG 1.1//EN" "http://www.w3.org/Graphics/SVG/1.1/DTD/svg11.dtd">
<svg xmlns="http://www.w3.org/2000/svg" version="1.1" width="192px" height="192px" style="shape-rendering:geometricPrecision; text-rendering:geometricPrecision; image-rendering:optimizeQuality; fill-rule:evenodd; clip-rule:evenodd" xmlns:xlink="http://www.w3.org/1999/xlink">
<g><path style="opacity:0.248" fill="#423937" d="M 141.5,35.5 C 141.265,36.0967 140.765,36.4301 140,36.5C 137.361,35.0056 134.528,34.3389 131.5,34.5C 108.337,33.3369 85.0036,33.1703 61.5,34C 56.1049,34.9787 50.7716,36.1453 45.5,37.5C 48.1598,35.5033 51.1598,34.0033 54.5,33C 81.8333,32.3333 109.167,32.3333 136.5,33C 138.491,33.3736 140.158,34.207 141.5,35.5 Z"/></g>
<g><path style="opacity:1" fill="#232e35" d="M 131.5,34.5 C 134.528,34.3389 137.361,35.0056 140,36.5C 140.765,36.4301 141.265,36.0967 141.5,35.5C 151.89,39.7278 158.057,47.3945 160,58.5C 160.5,80.4975 160.667,102.497 160.5,124.5C 158.932,113.37 157.932,102.037 157.5,90.5C 158.285,83.1349 157.785,75.8016 156,68.5C 154.833,67 153.667,65.5 152.5,64C 149.333,63.5 147.5,61.6667 147,58.5C 146.832,82.0036 146.332,105.337 145.5,128.5C 145.667,104.831 145.5,81.1643 145,57.5C 142.888,51.8853 139.055,48.2187 133.5,46.5C 132.234,45.9101 130.901,45.4101 129.5,45C 105.996,44.1703 82.663,44.3369 59.5,45.5C 53.2201,47.2796 49.0534,51.2796 47,57.5C 46.5001,68.8284 46.3335,80.1618 46.5,91.5C 46.5,103.833 46.5,116.167 46.5,128.5C 45.6684,111.338 45.1684,94.0048 45,76.5C 44.8665,73.4749 43.8665,70.8082 42,68.5C 41.2401,72.2255 41.4068,75.8922 42.5,79.5C 41.4079,81.1831 40.7413,83.0164 40.5,85C 41.7044,88.6553 41.7044,92.322 40.5,96C 41.018,101.207 41.6847,106.374 42.5,111.5C 40.9377,114.614 41.2711,117.447 43.5,120C 40.0801,125.253 39.7468,130.586 42.5,136C 41.6198,137.356 41.2865,138.856 41.5,140.5C 39.1756,140.338 37.5089,139.172 36.5,137C 36.6971,131.882 37.6971,126.715 39.5,121.5C 38.6872,120.186 37.6872,119.019 36.5,118C 36.9563,113.531 37.623,108.865 38.5,104C 36.9517,94.6083 37.2851,85.275 39.5,76C 39.108,72.7518 38.108,69.7518 36.5,67C 38.8242,63.0219 40.6576,58.8552 42,54.5C 42.9009,51.4008 43.2342,48.4008 43,45.5C 44.9409,43.4585 47.1075,42.7918 49.5,43.5C 50.8333,41.5 52.5,39.8333 54.5,38.5C 55.1667,38.8333 55.8333,39.1667 56.5,39.5C 59.4724,37.42 62.8057,36.2533 66.5,36C 73.1366,35.1074 79.8033,34.6074 86.5,34.5C 101.596,34.6174 116.596,34.6174 131.5,34.5 Z"/></g>
<g><path style="opacity:1" fill="#2e3438" d="M 131.5,34.5 C 116.596,34.6174 101.596,34.6174 86.5,34.5C 79.8033,34.6074 73.1366,35.1074 66.5,36C 62.8057,36.2533 59.4724,37.42 56.5,39.5C 55.8333,39.1667 55.1667,38.8333 54.5,38.5C 52.5,39.8333 50.8333,41.5 49.5,43.5C 47.1075,42.7918 44.9409,43.4585 43,45.5C 43.2342,48.4008 42.9009,51.4008 42,54.5C 40.6576,58.8552 38.8242,63.0219 36.5,67C 38.108,69.7518 39.108,72.7518 39.5,76C 37.2851,85.275 36.9517,94.6083 38.5,104C 37.623,108.865 36.9563,113.531 36.5,118C 37.6872,119.019 38.6872,120.186 39.5,121.5C 37.6971,126.715 36.6971,131.882 36.5,137C 37.5089,139.172 39.1756,140.338 41.5,140.5C 41.84,142.679 42.84,144.512 44.5,146C 44.0426,146.414 43.7093,146.914 43.5,147.5C 45.0049,148.842 45.6715,150.508 45.5,152.5C 48.5235,152.517 51.1901,153.517 53.5,155.5C 58.456,156.494 63.456,156.827 68.5,156.5C 90.318,157.112 111.985,157.778 133.5,158.5C 107.831,158.667 82.1645,158.5 56.5,158C 42.1137,154.946 33.9471,146.113 32,131.5C 31.0766,105.471 31.4099,79.4715 33,53.5C 35.5318,46.7096 39.6984,41.3763 45.5,37.5C 50.7716,36.1453 56.1049,34.9787 61.5,34C 85.0036,33.1703 108.337,33.3369 131.5,34.5 Z"/></g>
<g><path style="opacity:1" fill="#1f2830" d="M 108.5,47.5 C 108.824,51.5546 108.491,55.5546 107.5,59.5C 107.036,61.9749 106.036,63.9749 104.5,65.5C 103.835,59.523 103.502,53.523 103.5,47.5C 105.167,47.5 106.833,47.5 108.5,47.5 Z"/></g>
<g><path style="opacity:1" fill="#1c2831" d="M 125.5,47.5 C 127.167,47.5 128.833,47.5 130.5,47.5C 139.591,49.9503 143.591,55.9503 142.5,65.5C 136.833,65.5 131.167,65.5 125.5,65.5C 125.5,59.5 125.5,53.5 125.5,47.5 Z"/></g>
<g><path style="opacity:1" fill="#d1d8d5" d="M 129.5,51.5 C 138.24,50.7172 140.907,54.2172 137.5,62C 129.685,64.5222 126.518,61.6888 128,53.5C 128.717,52.9558 129.217,52.2891 129.5,51.5 Z"/></g>
<g><path style="opacity:1" fill="#232d34" d="M 130.5,53.5 C 135.006,52.5272 137.172,54.1939 137,58.5C 130.645,62.2008 128.478,60.5342 130.5,53.5 Z"/></g>
<g><path style="opacity:1" fill="#c3ced1" d="M 132.5,55.5 C 134.465,55.9483 134.798,56.9483 133.5,58.5C 132.614,57.675 132.281,56.675 132.5,55.5 Z"/></g>
<g><path style="opacity:1" fill="#7d8688" d="M 125.5,47.5 C 125.5,53.5 125.5,59.5 125.5,65.5C 131.167,65.5 136.833,65.5 142.5,65.5C 136.69,66.4896 130.69,66.8229 124.5,66.5C 124.177,59.9779 124.51,53.6446 125.5,47.5 Z"/></g>
<g><path style="opacity:1" fill="#f0f4f2" d="M 59.5,45.5 C 78.8362,45.3334 98.1695,45.5 117.5,46C 114.487,46.5022 111.487,47.0022 108.5,47.5C 106.833,47.5 105.167,47.5 103.5,47.5C 103.502,53.523 103.835,59.523 104.5,65.5C 102.958,64.6993 101.292,64.366 99.5,64.5C 99.5,62.8333 99.5,61.1667 99.5,59.5C 99.5,55.5 99.5,51.5 99.5,47.5C 97.8333,47.5 96.1667,47.5 94.5,47.5C 94.1832,51.7016 94.5166,55.7016 95.5,59.5C 95.5,61.5 95.5,63.5 95.5,65.5C 94.1667,65.5 92.8333,65.5 91.5,65.5C 90.8333,41.5 90.1667,41.5 89.5,65.5C 93.6472,66.3247 97.9805,66.8247 102.5,67C 84.3287,67.1683 66.3287,67.6683 48.5,68.5C 48.5,76.5 48.5,84.5 48.5,92.5C 47.8333,92.1667 47.1667,91.8333 46.5,91.5C 46.3335,80.1618 46.5001,68.8284 47,57.5C 49.0534,51.2796 53.2201,47.2796 59.5,45.5 Z"/></g>
<g><path style="opacity:1" fill="#939b9e" d="M 67.5,47.5 C 68.4902,53.6446 68.8235,59.9779 68.5,66.5C 61.8333,66.5 55.1667,66.5 48.5,66.5C 48.1936,63.6146 48.5269,60.9479 49.5,58.5C 49.5,60.8333 49.5,63.1667 49.5,65.5C 55.5,65.5 61.5,65.5 67.5,65.5C 67.5,59.5 67.5,53.5 67.5,47.5 Z"/></g>
<g><path style="opacity:1" fill="#243036" d="M 70.5,47.5 C 76.1667,47.5 81.8333,47.5 87.5,47.5C 87.5,53.8333 87.5,60.1667 87.5,66.5C 81.8333,66.5 76.1667,66.5 70.5,66.5C 70.5,60.1667 70.5,53.8333 70.5,47.5 Z"/></g>
<g><path style="opacity:1" fill="#a4abaa" d="M 91.5,65.5 C 90.8333,65.5 90.1667,65.5 89.5,65.5C 90.1667,41.5 90.8333,41.5 91.5,65.5 Z"/></g>
<g><path style="opacity:1" fill="#c2cbcc" d="M 75.5,50.5 C 84.5557,49.9042 86.8891,53.5709 82.5,61.5C 75.2023,63.7009 72.0356,61.0343 73,53.5C 74.045,52.6266 74.8783,51.6266 75.5,50.5 Z"/></g>
<g><path style="opacity:1" fill="#222d33" d="M 76.5,52.5 C 82.704,52.3137 84.0374,54.8137 80.5,60C 78.8876,60.7203 77.3876,60.5536 76,59.5C 75.2967,57.0709 75.4634,54.7375 76.5,52.5 Z"/></g>
<g><path style="opacity:1" fill="#dbe3e6" d="M 77.5,55.5 C 78.675,55.281 79.675,55.6143 80.5,56.5C 78.9483,57.7979 77.9483,57.4646 77.5,55.5 Z"/></g>
<g><path style="opacity:1" fill="#212b34" d="M 99.5,59.5 C 98.8354,61.3691 98.1687,63.3691 97.5,65.5C 96.8313,63.3691 96.1646,61.3691 95.5,59.5C 94.5166,55.7016 94.1832,51.7016 94.5,47.5C 96.1667,47.5 97.8333,47.5 99.5,47.5C 99.5,51.5 99.5,55.5 99.5,59.5 Z"/></g>
<g><path style="opacity:1" fill="#1e2930" d="M 67.5,47.5 C 67.5,53.5 67.5,59.5 67.5,65.5C 61.5,65.5 55.5,65.5 49.5,65.5C 49.5,63.1667 49.5,60.8333 49.5,58.5C 52.5366,50.3024 58.5366,46.6357 67.5,47.5 Z"/></g>
<g><path style="opacity:1" fill="#d4d9da" d="M 55.5,51.5 C 64.9905,50.1377 67.6572,53.6377 63.5,62C 56.388,64.5545 52.888,62.0545 53,54.5C 54.045,53.6266 54.8783,52.6266 55.5,51.5 Z"/></g>
<g><path style="opacity:1" fill="#202a30" d="M 56.5,53.5 C 61.9394,52.5022 63.9394,54.5022 62.5,59.5C 56.1343,61.801 54.1343,59.801 56.5,53.5 Z"/></g>
<g><path style="opacity:1" fill="#c5cdcf" d="M 58.5,55.5 C 60.0481,55.8212 60.7148,56.8212 60.5,58.5C 57.7524,58.5983 57.0857,57.5983 58.5,55.5 Z"/></g>
<g><path style="opacity:1" fill="#17222a" d="M 160.5,124.5 C 161.078,135.133 157.412,143.8 149.5,150.5C 149.67,149.178 149.337,148.011 148.5,147C 151.424,145.702 153.758,143.702 155.5,141C 153.721,138.057 153.055,135.057 153.5,132C 151.003,130.017 149.836,130.85 150,134.5C 148.227,137.06 146.227,139.393 144,141.5C 141.91,140.209 140.576,140.876 140,143.5C 139.722,142.584 139.222,141.918 138.5,141.5C 142.152,137.861 144.485,133.528 145.5,128.5C 146.332,105.337 146.832,82.0036 147,58.5C 147.5,61.6667 149.333,63.5 152.5,64C 153.667,65.5 154.833,67 156,68.5C 157.785,75.8016 158.285,83.1349 157.5,90.5C 157.932,102.037 158.932,113.37 160.5,124.5 Z"/></g>
<g><path style="opacity:1" fill="#202c33" d="M 79.5,69.5 C 80.2625,70.2679 81.2625,70.7679 82.5,71C 81.552,71.4828 80.552,71.6495 79.5,71.5C 79.627,74.245 78.4603,76.245 76,77.5C 75.7744,80.095 75.2744,82.595 74.5,85C 74.8333,85.3333 75.1667,85.6667 75.5,86C 74.4366,87.1882 73.1033,87.6882 71.5,87.5C 70.4748,90.5755 69.4748,93.5755 68.5,96.5C 68.9688,98.9946 68.9688,101.661 68.5,104.5C 66.5,104.167 64.5,103.833 62.5,103.5C 62.5,104.833 62.5,106.167 62.5,107.5C 73.1667,107.5 83.8333,107.5 94.5,107.5C 83.6596,108.824 72.6596,108.824 61.5,107.5C 59.7642,104.895 57.9308,104.895 56,107.5C 55.3224,109.598 55.4891,111.598 56.5,113.5C 54.8793,113.787 53.8793,114.787 53.5,116.5C 76.4903,117.5 99.4903,117.833 122.5,117.5C 98.3391,118.498 74.0057,118.831 49.5,118.5C 49.5,102.167 49.5,85.8333 49.5,69.5C 59.5,69.5 69.5,69.5 79.5,69.5 Z"/></g>
<g><path style="opacity:1" fill="#273339" d="M 48.5,68.5 C 66.8333,68.5 85.1667,68.5 103.5,68.5C 104.365,71.9711 105.532,75.3044 107,78.5C 107.416,76.4497 108.583,75.1164 110.5,74.5C 112.569,85.2993 113.069,96.2993 112,107.5C 110.812,108.563 110.312,109.897 110.5,111.5C 108.006,110.367 105.506,109.367 103,108.5C 102.79,110.058 102.29,111.391 101.5,112.5C 101.675,110.379 101.341,108.379 100.5,106.5C 102.668,104.522 103.335,102.188 102.5,99.5C 99.5998,99.1743 96.5998,98.5076 93.5,97.5C 96.5468,98.1446 98.7135,97.1446 100,94.5C 100.5,87.1742 100.666,79.8409 100.5,72.5C 99.5,72.5 98.5,72.5 97.5,72.5C 98.3984,71.8423 99.3984,71.1757 100.5,70.5C 93.5316,69.503 86.5316,69.1697 79.5,69.5C 69.5,69.5 59.5,69.5 49.5,69.5C 49.5,85.8333 49.5,102.167 49.5,118.5C 48.507,110.016 48.1736,101.349 48.5,92.5C 48.5,84.5 48.5,76.5 48.5,68.5 Z"/></g>
<g><path style="opacity:1" fill="#dfe3e4" d="M 97.5,72.5 C 98.5,72.5 99.5,72.5 100.5,72.5C 100.666,79.8409 100.5,87.1742 100,94.5C 98.7135,97.1446 96.5468,98.1446 93.5,97.5C 89.9874,95.0917 89.6541,92.2583 92.5,89C 94.4727,88.5045 96.4727,88.3379 98.5,88.5C 98.5,84.1667 98.5,79.8333 98.5,75.5C 93.1851,76.4843 87.8518,77.4843 82.5,78.5C 82.7951,85.2257 82.4617,91.8923 81.5,98.5C 75.2407,102.293 72.7407,100.626 74,93.5C 75.4443,91.8446 77.2776,91.178 79.5,91.5C 79.3342,86.8215 79.5008,82.1548 80,77.5C 85.772,75.7443 91.6053,74.0776 97.5,72.5 Z"/></g>
<g><path style="opacity:1" fill="#b0b5ba" d="M 52.5,75.5 C 55.8606,76.2032 56.1939,77.5365 53.5,79.5C 51.3576,78.5629 51.0243,77.2296 52.5,75.5 Z"/></g>
<g><path style="opacity:1" fill="#d9dfe0" d="M 58.5,74.5 C 62.1612,74.3501 63.1612,75.8501 61.5,79C 60.552,79.4828 59.552,79.6495 58.5,79.5C 58.5,77.8333 58.5,76.1667 58.5,74.5 Z"/></g>
<g><path style="opacity:1" fill="#cbd1d4" d="M 66.5,75.5 C 67.5,75.5 68.5,75.5 69.5,75.5C 69.5,76.8333 69.5,78.1667 69.5,79.5C 66.0464,79.7332 65.0464,78.3999 66.5,75.5 Z"/></g>
<g><path style="opacity:1" fill="#dde3e2" d="M 59.5,45.5 C 82.663,44.3369 105.996,44.1703 129.5,45C 130.901,45.4101 132.234,45.9101 133.5,46.5C 132.791,47.404 131.791,47.7373 130.5,47.5C 128.833,47.5 127.167,47.5 125.5,47.5C 124.51,53.6446 124.177,59.9779 124.5,66.5C 130.69,66.8229 136.69,66.4896 142.5,65.5C 143.314,63.369 143.814,61.0356 144,58.5C 144.667,64.8333 144.667,71.1667 144,77.5C 143.819,74.3054 143.319,71.3054 142.5,68.5C 136.833,68.5 131.167,68.5 125.5,68.5C 124.51,74.31 124.177,80.31 124.5,86.5C 143.167,86.8333 143.167,87.1667 124.5,87.5C 124.198,90.0593 124.532,92.3926 125.5,94.5C 127.213,95.6354 127.88,97.302 127.5,99.5C 126.833,98.8333 126.167,98.1667 125.5,97.5C 125.5,96.8333 125.167,96.5 124.5,96.5C 124.082,95.7784 123.416,95.2784 122.5,95C 123.828,86.0684 123.828,77.2351 122.5,68.5C 116.167,68.5 109.833,68.5 103.5,68.5C 85.1667,68.5 66.8333,68.5 48.5,68.5C 66.3287,67.6683 84.3287,67.1683 102.5,67C 97.9805,66.8247 93.6472,66.3247 89.5,65.5C 90.1667,65.5 90.8333,65.5 91.5,65.5C 92.8333,65.5 94.1667,65.5 95.5,65.5C 95.5,63.5 95.5,61.5 95.5,59.5C 96.1646,61.3691 96.8313,63.3691 97.5,65.5C 98.1687,63.3691 98.8354,61.3691 99.5,59.5C 99.5,61.1667 99.5,62.8333 99.5,64.5C 101.292,64.366 102.958,64.6993 104.5,65.5C 106.036,63.9749 107.036,61.9749 107.5,59.5C 108.491,55.5546 108.824,51.5546 108.5,47.5C 111.487,47.0022 114.487,46.5022 117.5,46C 98.1695,45.5 78.8362,45.3334 59.5,45.5 Z"/></g>
<g><path style="opacity:1" fill="#565d60" d="M 120.5,47.5 C 121.816,50.0866 122.483,53.0866 122.5,56.5C 122.167,59.5 121.833,62.5 121.5,65.5C 120.504,59.5368 120.171,53.5368 120.5,47.5 Z"/></g>
<g><path style="opacity:1" fill="#15212b" d="M 112.5,47.5 C 113.833,47.5 115.167,47.5 116.5,47.5C 115.167,71.5 113.833,71.5 112.5,47.5 Z"/></g>
<g><path style="opacity:1" fill="#1d2a32" d="M 46.5,128.5 C 46.2627,129.791 46.596,130.791 47.5,131.5C 49.4676,137.798 53.4676,142.131 59.5,144.5C 58.5041,144.414 57.6708,144.748 57,145.5C 56.2747,143.842 55.108,143.342 53.5,144C 54.1258,144.75 54.6258,145.584 55,146.5C 59.6193,149.747 64.1193,153.081 68.5,156.5C 63.456,156.827 58.456,156.494 53.5,155.5C 51.1901,153.517 48.5235,152.517 45.5,152.5C 45.6715,150.508 45.0049,148.842 43.5,147.5C 43.7093,146.914 44.0426,146.414 44.5,146C 42.84,144.512 41.84,142.679 41.5,140.5C 41.2865,138.856 41.6198,137.356 42.5,136C 39.7468,130.586 40.0801,125.253 43.5,120C 41.2711,117.447 40.9377,114.614 42.5,111.5C 41.6847,106.374 41.018,101.207 40.5,96C 41.7044,92.322 41.7044,88.6553 40.5,85C 40.7413,83.0164 41.4079,81.1831 42.5,79.5C 41.4068,75.8922 41.2401,72.2255 42,68.5C 43.8665,70.8082 44.8665,73.4749 45,76.5C 45.1684,94.0048 45.6684,111.338 46.5,128.5 Z"/></g>
<g><path style="opacity:1" fill="#c6cece" d="M 68.5,96.5 C 63.99,103.992 58.8234,104.326 53,97.5C 51.5,88.3333 55.3333,84.5 64.5,86C 68.0482,88.5907 69.3815,92.0907 68.5,96.5 Z"/></g>
<g><path style="opacity:1" fill="#2a343c" d="M 57.5,87.5 C 66.8233,87.7408 68.8233,91.5742 63.5,99C 58.1066,100.608 55.1066,98.6083 54.5,93C 54.8627,90.8077 55.8627,88.9744 57.5,87.5 Z"/></g>
<g><path style="opacity:1" fill="#e2e4e4" d="M 58.5,90.5 C 59.8333,90.5 61.1667,90.5 62.5,90.5C 63.2436,93.9496 61.9103,95.6162 58.5,95.5C 58.5,93.8333 58.5,92.1667 58.5,90.5 Z"/></g>
<g><path style="opacity:1" fill="#1a262d" d="M 79.5,69.5 C 86.5316,69.1697 93.5316,69.503 100.5,70.5C 99.3984,71.1757 98.3984,71.8423 97.5,72.5C 91.6053,74.0776 85.772,75.7443 80,77.5C 79.5008,82.1548 79.3342,86.8215 79.5,91.5C 77.2776,91.178 75.4443,91.8446 74,93.5C 72.7407,100.626 75.2407,102.293 81.5,98.5C 82.4617,91.8923 82.7951,85.2257 82.5,78.5C 87.8518,77.4843 93.1851,76.4843 98.5,75.5C 98.5,79.8333 98.5,84.1667 98.5,88.5C 96.4727,88.3379 94.4727,88.5045 92.5,89C 89.6541,92.2583 89.9874,95.0917 93.5,97.5C 96.5998,98.5076 99.5998,99.1743 102.5,99.5C 103.335,102.188 102.668,104.522 100.5,106.5C 98.0993,104.938 96.0993,105.271 94.5,107.5C 83.8333,107.5 73.1667,107.5 62.5,107.5C 62.5,106.167 62.5,104.833 62.5,103.5C 64.5,103.833 66.5,104.167 68.5,104.5C 68.9688,101.661 68.9688,98.9946 68.5,96.5C 69.4748,93.5755 70.4748,90.5755 71.5,87.5C 73.1033,87.6882 74.4366,87.1882 75.5,86C 75.1667,85.6667 74.8333,85.3333 74.5,85C 75.2744,82.595 75.7744,80.095 76,77.5C 78.4603,76.245 79.627,74.245 79.5,71.5C 80.552,71.6495 81.552,71.4828 82.5,71C 81.2625,70.7679 80.2625,70.2679 79.5,69.5 Z"/></g>
<g><path style="opacity:1" fill="#c8cdcd" d="M 110.5,111.5 C 110.312,109.897 110.812,108.563 112,107.5C 113.069,96.2993 112.569,85.2993 110.5,74.5C 111.659,72.6231 113.326,72.1231 115.5,73C 116.059,73.7247 116.392,74.5581 116.5,75.5C 115.167,87.1667 115.167,98.8333 116.5,110.5C 116.5,112.5 115.5,113.5 113.5,113.5C 111.962,113.547 110.962,112.88 110.5,111.5 Z"/></g>
<g><path style="opacity:1" fill="#21292f" d="M 124.5,96.5 C 125.167,96.5 125.5,96.8333 125.5,97.5C 125.5,98.5 125.5,99.5 125.5,100.5C 123.654,100.778 122.32,100.111 121.5,98.5C 122.005,97.0815 123.005,96.4148 124.5,96.5 Z"/></g>
<g><path style="opacity:1" fill="#1e2930" d="M 125.5,103.5 C 126.806,102.533 127.473,101.199 127.5,99.5C 127.88,97.302 127.213,95.6354 125.5,94.5C 125.5,92.5 125.5,90.5 125.5,88.5C 131.167,88.5 136.833,88.5 142.5,88.5C 142.5,98.5 142.5,108.5 142.5,118.5C 136.833,118.5 131.167,118.5 125.5,118.5C 125.5,113.5 125.5,108.5 125.5,103.5 Z"/></g>
<g><path style="opacity:1" fill="#ccd0cf" d="M 131.5,91.5 C 133.199,91.3398 134.866,91.5065 136.5,92C 137.059,92.7247 137.392,93.5581 137.5,94.5C 134.833,100.167 134.833,105.833 137.5,111.5C 137.426,113.739 136.259,114.739 134,114.5C 131.741,114.739 130.574,113.739 130.5,111.5C 133.167,105.833 133.167,100.167 130.5,94.5C 130.685,93.4163 131.018,92.4163 131.5,91.5 Z"/></g>
<g><path style="opacity:1" fill="#19252c" d="M 103.5,68.5 C 109.833,68.5 116.167,68.5 122.5,68.5C 122.666,76.84 122.5,85.1733 122,93.5C 118.667,96.8333 118.667,100.167 122,103.5C 122.499,108.155 122.666,112.821 122.5,117.5C 99.4903,117.833 76.4903,117.5 53.5,116.5C 53.8793,114.787 54.8793,113.787 56.5,113.5C 68.9775,111.439 81.6442,110.939 94.5,112C 96.6738,115.121 99.0072,115.288 101.5,112.5C 102.29,111.391 102.79,110.058 103,108.5C 105.506,109.367 108.006,110.367 110.5,111.5C 110.962,112.88 111.962,113.547 113.5,113.5C 115.5,113.5 116.5,112.5 116.5,110.5C 115.167,98.8333 115.167,87.1667 116.5,75.5C 116.392,74.5581 116.059,73.7247 115.5,73C 113.326,72.1231 111.659,72.6231 110.5,74.5C 108.583,75.1164 107.416,76.4497 107,78.5C 105.532,75.3044 104.365,71.9711 103.5,68.5 Z"/></g>
<g><path style="opacity:1" fill="#d5dbda" d="M 122.5,68.5 C 123.828,77.2351 123.828,86.0684 122.5,95C 123.416,95.2784 124.082,95.7784 124.5,96.5C 123.005,96.4148 122.005,97.0815 121.5,98.5C 122.32,100.111 123.654,100.778 125.5,100.5C 125.5,99.5 125.5,98.5 125.5,97.5C 126.167,98.1667 126.833,98.8333 127.5,99.5C 127.473,101.199 126.806,102.533 125.5,103.5C 124.512,108.64 124.179,113.974 124.5,119.5C 130.509,119.334 136.509,119.501 142.5,120C 136.319,120.172 130.319,120.672 124.5,121.5C 123.833,121.5 123.167,121.5 122.5,121.5C 116.833,121.5 111.167,121.5 105.5,121.5C 105.5,124.5 105.5,127.5 105.5,130.5C 106.5,130.5 107.5,130.5 108.5,130.5C 108.281,129.325 108.614,128.325 109.5,127.5C 110.833,130.167 110.833,132.833 109.5,135.5C 108.859,134.007 107.859,133.007 106.5,132.5C 105.521,135.625 105.187,138.958 105.5,142.5C 104.833,143.833 104.167,143.833 103.5,142.5C 103.813,138.958 103.479,135.625 102.5,132.5C 101.167,132.5 99.8333,132.5 98.5,132.5C 98.8076,134.924 98.4742,137.257 97.5,139.5C 96.1667,134.167 96.1667,128.833 97.5,123.5C 98.3142,125.766 98.8142,128.1 99,130.5C 100.011,129.663 101.178,129.33 102.5,129.5C 102.5,126.833 102.5,124.167 102.5,121.5C 91.8333,121.5 81.1667,121.5 70.5,121.5C 70.5,124.167 70.5,126.833 70.5,129.5C 71.8333,129.5 73.1667,129.5 74.5,129.5C 74.5,130.5 74.5,131.5 74.5,132.5C 73.1667,132.5 71.8333,132.5 70.5,132.5C 69.6829,134.969 69.1829,137.635 69,140.5C 68.5004,133.842 68.3337,127.175 68.5,120.5C 61.8333,120.5 55.1667,120.5 48.5,120.5C 48.815,124.371 48.4816,128.038 47.5,131.5C 46.596,130.791 46.2627,129.791 46.5,128.5C 46.5,116.167 46.5,103.833 46.5,91.5C 47.1667,91.8333 47.8333,92.1667 48.5,92.5C 48.1736,101.349 48.507,110.016 49.5,118.5C 74.0057,118.831 98.3391,118.498 122.5,117.5C 122.666,112.821 122.499,108.155 122,103.5C 118.667,100.167 118.667,96.8333 122,93.5C 122.5,85.1733 122.666,76.84 122.5,68.5 Z"/></g>
<g><path style="opacity:1" fill="#c7caca" d="M 94.5,107.5 C 96.0993,105.271 98.0993,104.938 100.5,106.5C 101.341,108.379 101.675,110.379 101.5,112.5C 99.0072,115.288 96.6738,115.121 94.5,112C 81.6442,110.939 68.9775,111.439 56.5,113.5C 55.4891,111.598 55.3224,109.598 56,107.5C 57.9308,104.895 59.7642,104.895 61.5,107.5C 72.6596,108.824 83.6596,108.824 94.5,107.5 Z"/></g>
<g><path style="opacity:1" fill="#37454c" d="M 96.5,108.5 C 99.9571,108.667 100.29,109.667 97.5,111.5C 96.6143,110.675 96.281,109.675 96.5,108.5 Z"/></g>
<g><path style="opacity:1" fill="#242b2e" d="M 75.5,94.5 C 76.8333,94.5 78.1667,94.5 79.5,94.5C 79.7778,96.3464 79.1112,97.6798 77.5,98.5C 75.8888,97.6798 75.2222,96.3464 75.5,94.5 Z"/></g>
<g><path style="opacity:1" fill="#232b31" d="M 93.5,91.5 C 94.8333,91.5 96.1667,91.5 97.5,91.5C 97.7778,93.3464 97.1112,94.6798 95.5,95.5C 93.8888,94.6798 93.2222,93.3464 93.5,91.5 Z"/></g>
<g><path style="opacity:1" fill="#bbc2c2" d="M 133.5,46.5 C 139.055,48.2187 142.888,51.8853 145,57.5C 145.5,81.1643 145.667,104.831 145.5,128.5C 144.485,133.528 142.152,137.861 138.5,141.5C 136.188,142.32 133.854,143.153 131.5,144C 107.502,144.5 83.5023,144.667 59.5,144.5C 53.4676,142.131 49.4676,137.798 47.5,131.5C 48.4816,128.038 48.815,124.371 48.5,120.5C 55.1667,120.5 61.8333,120.5 68.5,120.5C 68.3337,127.175 68.5004,133.842 69,140.5C 69.1829,137.635 69.6829,134.969 70.5,132.5C 70.5,135.5 70.5,138.5 70.5,141.5C 81.3206,142.495 92.3206,142.828 103.5,142.5C 104.167,143.833 104.833,143.833 105.5,142.5C 111.358,142.822 117.025,142.489 122.5,141.5C 122.5,138.5 122.5,135.5 122.5,132.5C 121.5,132.5 120.5,132.5 119.5,132.5C 118.996,136.335 117.996,136.335 116.5,132.5C 115.534,134.396 115.201,136.396 115.5,138.5C 114.5,138.5 113.5,138.5 112.5,138.5C 112.5,133.833 112.5,129.167 112.5,124.5C 113.5,124.5 114.5,124.5 115.5,124.5C 115.325,130.697 116.325,131.363 118.5,126.5C 119.386,127.325 119.719,128.325 119.5,129.5C 120.5,129.5 121.5,129.5 122.5,129.5C 122.5,126.833 122.5,124.167 122.5,121.5C 123.167,121.5 123.833,121.5 124.5,121.5C 130.319,120.672 136.319,120.172 142.5,120C 136.509,119.501 130.509,119.334 124.5,119.5C 124.179,113.974 124.512,108.64 125.5,103.5C 125.5,108.5 125.5,113.5 125.5,118.5C 131.167,118.5 136.833,118.5 142.5,118.5C 142.5,108.5 142.5,98.5 142.5,88.5C 136.833,88.5 131.167,88.5 125.5,88.5C 125.5,90.5 125.5,92.5 125.5,94.5C 124.532,92.3926 124.198,90.0593 124.5,87.5C 143.167,87.1667 143.167,86.8333 124.5,86.5C 124.177,80.31 124.51,74.31 125.5,68.5C 125.5,74.1667 125.5,79.8333 125.5,85.5C 131.167,85.5 136.833,85.5 142.5,85.5C 142.5,79.8333 142.5,74.1667 142.5,68.5C 143.319,71.3054 143.819,74.3054 144,77.5C 144.667,71.1667 144.667,64.8333 144,58.5C 143.814,61.0356 143.314,63.369 142.5,65.5C 143.591,55.9503 139.591,49.9503 130.5,47.5C 131.791,47.7373 132.791,47.404 133.5,46.5 Z"/></g>
<g><path style="opacity:1" fill="#1b262d" d="M 125.5,121.5 C 131.167,121.5 136.833,121.5 142.5,121.5C 143.593,128.206 141.926,134.039 137.5,139C 135.35,140.411 133.016,141.245 130.5,141.5C 128.833,141.5 127.167,141.5 125.5,141.5C 125.5,134.833 125.5,128.167 125.5,121.5 Z"/></g>
<g><path style="opacity:1" fill="#18242b" d="M 122.5,121.5 C 122.5,124.167 122.5,126.833 122.5,129.5C 121.5,129.5 120.5,129.5 119.5,129.5C 119.719,128.325 119.386,127.325 118.5,126.5C 116.325,131.363 115.325,130.697 115.5,124.5C 114.5,124.5 113.5,124.5 112.5,124.5C 112.5,129.167 112.5,133.833 112.5,138.5C 113.5,138.5 114.5,138.5 115.5,138.5C 115.201,136.396 115.534,134.396 116.5,132.5C 117.996,136.335 118.996,136.335 119.5,132.5C 120.5,132.5 121.5,132.5 122.5,132.5C 122.5,135.5 122.5,138.5 122.5,141.5C 117.167,141.5 111.833,141.5 106.5,141.5C 106.5,138.5 106.5,135.5 106.5,132.5C 107.859,133.007 108.859,134.007 109.5,135.5C 110.833,132.833 110.833,130.167 109.5,127.5C 108.614,128.325 108.281,129.325 108.5,130.5C 107.5,130.5 106.5,130.5 105.5,130.5C 105.5,127.5 105.5,124.5 105.5,121.5C 111.167,121.5 116.833,121.5 122.5,121.5 Z"/></g>
<g><path style="opacity:1" fill="#1f2a31" d="M 102.5,132.5 C 102.5,135.5 102.5,138.5 102.5,141.5C 91.8333,141.5 81.1667,141.5 70.5,141.5C 70.5,138.5 70.5,135.5 70.5,132.5C 71.8333,132.5 73.1667,132.5 74.5,132.5C 74.5,131.5 74.5,130.5 74.5,129.5C 73.1667,129.5 71.8333,129.5 70.5,129.5C 70.5,126.833 70.5,124.167 70.5,121.5C 81.1667,121.5 91.8333,121.5 102.5,121.5C 102.5,124.167 102.5,126.833 102.5,129.5C 101.178,129.33 100.011,129.663 99,130.5C 98.8142,128.1 98.3142,125.766 97.5,123.5C 96.1667,128.833 96.1667,134.167 97.5,139.5C 98.4742,137.257 98.8076,134.924 98.5,132.5C 99.8333,132.5 101.167,132.5 102.5,132.5 Z"/></g>
<g><path style="opacity:1" fill="#1d2830" d="M 49.5,121.5 C 55.5,121.5 61.5,121.5 67.5,121.5C 67.5,128.167 67.5,134.833 67.5,141.5C 53.5684,142.228 47.5684,135.561 49.5,121.5 Z"/></g>
<g><path style="opacity:1" fill="#1b262d" d="M 125.5,68.5 C 131.167,68.5 136.833,68.5 142.5,68.5C 142.5,74.1667 142.5,79.8333 142.5,85.5C 136.833,85.5 131.167,85.5 125.5,85.5C 125.5,79.8333 125.5,74.1667 125.5,68.5 Z"/></g>
<g><path style="opacity:1" fill="#dae1e1" d="M 130.5,71.5 C 139.871,71.0263 141.871,74.5263 136.5,82C 128.505,82.1448 126.505,78.6448 130.5,71.5 Z"/></g>
<g><path style="opacity:1" fill="#1e2a32" d="M 131.5,73.5 C 136.159,73.0146 137.492,74.848 135.5,79C 131.135,79.4461 129.802,77.6127 131.5,73.5 Z"/></g>
<g><path style="opacity:1" fill="#d7dddd" d="M 55.5,124.5 C 65.8202,124.411 68.1535,128.578 62.5,137C 52.1015,137.471 49.7682,133.305 55.5,124.5 Z"/></g>
<g><path style="opacity:1" fill="#c5cbcc" d="M 85.5,123.5 C 86.5,123.5 87.5,123.5 88.5,123.5C 88.5,128.833 88.5,134.167 88.5,139.5C 87.5,139.5 86.5,139.5 85.5,139.5C 85.5,134.167 85.5,128.833 85.5,123.5 Z"/></g>
<g><path style="opacity:1" fill="#e4e8e9" d="M 81.5,126.5 C 82.7773,127.694 83.4439,129.36 83.5,131.5C 83.1667,133.167 82.8333,134.833 82.5,136.5C 81.513,133.232 81.1796,129.898 81.5,126.5 Z"/></g>
<g><path style="opacity:1" fill="#d7dedf" d="M 91.5,125.5 C 92.7868,126.871 93.4535,128.705 93.5,131C 93.1667,132.833 92.8333,134.667 92.5,136.5C 91.5108,132.893 91.1774,129.226 91.5,125.5 Z"/></g>
<g><path style="opacity:1" fill="#2b353a" d="M 56.5,126.5 C 62.8026,126.924 64.4692,129.757 61.5,135C 54.4159,135.475 52.7492,132.642 56.5,126.5 Z"/></g>
<g><path style="opacity:1" fill="#d8dcdd" d="M 57.5,129.5 C 58.5,129.5 59.5,129.5 60.5,129.5C 60.5,130.5 60.5,131.5 60.5,132.5C 59.5,132.5 58.5,132.5 57.5,132.5C 57.5,131.5 57.5,130.5 57.5,129.5 Z"/></g>
<g><path style="opacity:1" fill="#ced5d5" d="M 76.5,123.5 C 77.8117,125.743 78.4783,128.41 78.5,131.5C 78.1667,134.167 77.8333,136.833 77.5,139.5C 76.914,139.291 76.414,138.957 76,138.5C 75.2223,133.416 75.3889,128.416 76.5,123.5 Z"/></g>
<g><path style="opacity:1" fill="#c8d1d0" d="M 130.5,124.5 C 137.825,123.992 140.658,127.326 139,134.5C 135.333,138.5 131.667,138.5 128,134.5C 126.861,130.579 127.695,127.246 130.5,124.5 Z"/></g>
<g><path style="opacity:1" fill="#2a353b" d="M 131.5,126.5 C 137.661,126.943 138.995,129.777 135.5,135C 132.783,136.033 130.949,135.2 130,132.5C 129.252,130.16 129.752,128.16 131.5,126.5 Z"/></g>
<g><path style="opacity:1" fill="#adbbc2" d="M 132.5,129.5 C 136.31,130.754 136.31,131.754 132.5,132.5C 132.5,131.5 132.5,130.5 132.5,129.5 Z"/></g>
<g><path style="opacity:1" fill="#646f71" d="M 124.5,121.5 C 124.833,121.5 125.167,121.5 125.5,121.5C 125.5,128.167 125.5,134.833 125.5,141.5C 127.167,141.5 128.833,141.5 130.5,141.5C 128.735,142.461 126.735,142.795 124.5,142.5C 124.5,135.5 124.5,128.5 124.5,121.5 Z"/></g>
<g><path style="opacity:1" fill="#60696e" d="M 102.5,132.5 C 103.479,135.625 103.813,138.958 103.5,142.5C 92.3206,142.828 81.3206,142.495 70.5,141.5C 81.1667,141.5 91.8333,141.5 102.5,141.5C 102.5,138.5 102.5,135.5 102.5,132.5 Z"/></g>
<g><path style="opacity:1" fill="#5d666b" d="M 106.5,132.5 C 106.5,135.5 106.5,138.5 106.5,141.5C 111.833,141.5 117.167,141.5 122.5,141.5C 117.025,142.489 111.358,142.822 105.5,142.5C 105.187,138.958 105.521,135.625 106.5,132.5 Z"/></g>
<g><path style="opacity:1" fill="#162128" d="M 149.5,150.5 C 149.063,152.074 148.063,153.241 146.5,154C 142.24,155.809 137.906,157.309 133.5,158.5C 111.985,157.778 90.318,157.112 68.5,156.5C 64.1193,153.081 59.6193,149.747 55,146.5C 54.6258,145.584 54.1258,144.75 53.5,144C 55.108,143.342 56.2747,143.842 57,145.5C 57.6708,144.748 58.5041,144.414 59.5,144.5C 83.5023,144.667 107.502,144.5 131.5,144C 133.854,143.153 136.188,142.32 138.5,141.5C 139.222,141.918 139.722,142.584 140,143.5C 140.576,140.876 141.91,140.209 144,141.5C 146.227,139.393 148.227,137.06 150,134.5C 149.836,130.85 151.003,130.017 153.5,132C 153.055,135.057 153.721,138.057 155.5,141C 153.758,143.702 151.424,145.702 148.5,147C 149.337,148.011 149.67,149.178 149.5,150.5 Z"/></g>
</svg>
